<svg width="256" height="50" viewBox="0 0 256 50" fill="none" xmlns="http://www.w3.org/2000/svg">
<rect width="256" height="50" fill="white"/>
<rect width="50" height="50" rx="10" fill="#2563EB"/>
<path d="M25.1761 9.90909H31.2557V30.1932C31.2557 32.0682 30.8343 33.697 29.9915 35.0795C29.1581 36.4621 27.9981 37.5275 26.5114 38.2756C25.0246 39.0237 23.2964 39.3977 21.3267 39.3977C19.5748 39.3977 17.9839 39.09 16.554 38.4744C15.1335 37.8494 14.0066 36.9025 13.1733 35.6335C12.34 34.3551 11.928 32.75 11.9375 30.8182H18.0597C18.0786 31.5852 18.2348 32.2434 18.5284 32.7926C18.8314 33.3324 19.2434 33.7491 19.7642 34.0426C20.2945 34.3267 20.9195 34.4688 21.6392 34.4688C22.3968 34.4688 23.036 34.3078 23.5568 33.9858C24.0871 33.6544 24.4896 33.1714 24.7642 32.5369C25.0388 31.9025 25.1761 31.1212 25.1761 30.1932V9.90909Z" fill="#FFFCFC"/>
<path d="M78.1761 9.90909H84.2557V30.1932C84.2557 32.0682 83.8343 33.697 82.9915 35.0795C82.1581 36.4621 80.9981 37.5275 79.5114 38.2756C78.0246 39.0237 76.2964 39.3977 74.3267 39.3977C72.5748 39.3977 70.9839 39.09 69.554 38.4744C68.1335 37.8494 67.0066 36.9025 66.1733 35.6335C65.34 34.3551 64.928 32.75 64.9375 30.8182H71.0597C71.0786 31.5852 71.2348 32.2434 71.5284 32.7926C71.8314 33.3324 72.2434 33.7491 72.7642 34.0426C73.2945 34.3267 73.9195 34.4688 74.6392 34.4688C75.3968 34.4688 76.036 34.3078 76.5568 33.9858C77.0871 33.6544 77.4896 33.1714 77.7642 32.5369C78.0388 31.9025 78.1761 31.1212 78.1761 30.1932V9.90909ZM99.0852 39.4261C96.8788 39.4261 94.9706 38.9574 93.3608 38.0199C91.7604 37.0729 90.5246 35.7566 89.6534 34.071C88.7822 32.3759 88.3466 30.411 88.3466 28.1761C88.3466 25.9223 88.7822 23.9527 89.6534 22.267C90.5246 20.572 91.7604 19.2557 93.3608 18.3182C94.9706 17.3712 96.8788 16.8977 99.0852 16.8977C101.292 16.8977 103.195 17.3712 104.795 18.3182C106.405 19.2557 107.646 20.572 108.517 22.267C109.388 23.9527 109.824 25.9223 109.824 28.1761C109.824 30.411 109.388 32.3759 108.517 34.071C107.646 35.7566 106.405 37.0729 104.795 38.0199C103.195 38.9574 101.292 39.4261 99.0852 39.4261ZM99.1136 34.7386C100.117 34.7386 100.955 34.4545 101.628 33.8864C102.3 33.3087 102.807 32.5227 103.148 31.5284C103.498 30.5341 103.673 29.4025 103.673 28.1335C103.673 26.8646 103.498 25.733 103.148 24.7386C102.807 23.7443 102.3 22.9583 101.628 22.3807C100.955 21.803 100.117 21.5142 99.1136 21.5142C98.1004 21.5142 97.2481 21.803 96.5568 22.3807C95.875 22.9583 95.3589 23.7443 95.0085 24.7386C94.6676 25.733 94.4972 26.8646 94.4972 28.1335C94.4972 29.4025 94.6676 30.5341 95.0085 31.5284C95.3589 32.5227 95.875 33.3087 96.5568 33.8864C97.2481 34.4545 98.1004 34.7386 99.1136 34.7386ZM113.872 39V9.90909H119.923V20.8466H120.108C120.373 20.2595 120.757 19.6629 121.259 19.0568C121.77 18.4413 122.433 17.9299 123.247 17.5227C124.071 17.1061 125.094 16.8977 126.315 16.8977C127.906 16.8977 129.374 17.3144 130.719 18.1477C132.063 18.9716 133.138 20.2169 133.943 21.8835C134.748 23.5407 135.151 25.6193 135.151 28.1193C135.151 30.553 134.758 32.608 133.972 34.2841C133.195 35.9508 132.134 37.215 130.79 38.0767C129.455 38.929 127.958 39.3551 126.301 39.3551C125.127 39.3551 124.128 39.161 123.304 38.7727C122.49 38.3845 121.822 37.8968 121.301 37.3097C120.78 36.7131 120.383 36.1117 120.108 35.5057H119.838V39H113.872ZM119.795 28.0909C119.795 29.3883 119.975 30.5199 120.335 31.4858C120.695 32.4517 121.216 33.2045 121.898 33.7443C122.58 34.2746 123.408 34.5398 124.384 34.5398C125.368 34.5398 126.202 34.2699 126.884 33.7301C127.565 33.1809 128.081 32.4233 128.432 31.4574C128.792 30.482 128.972 29.3598 128.972 28.0909C128.972 26.8314 128.796 25.7235 128.446 24.767C128.096 23.8106 127.58 23.0625 126.898 22.5227C126.216 21.983 125.378 21.7131 124.384 21.7131C123.399 21.7131 122.565 21.9735 121.884 22.4943C121.211 23.0152 120.695 23.7538 120.335 24.7102C119.975 25.6667 119.795 26.7936 119.795 28.0909ZM155.083 18.2756C154.969 17.1297 154.482 16.2396 153.62 15.6051C152.758 14.9706 151.589 14.6534 150.112 14.6534C149.108 14.6534 148.26 14.7955 147.569 15.0795C146.878 15.3542 146.347 15.7377 145.978 16.2301C145.618 16.7225 145.438 17.2812 145.438 17.9062C145.419 18.4271 145.528 18.8816 145.765 19.2699C146.011 19.6581 146.347 19.9943 146.773 20.2784C147.2 20.553 147.692 20.7945 148.251 21.0028C148.809 21.2017 149.406 21.3722 150.04 21.5142L152.654 22.1392C153.923 22.4233 155.088 22.8021 156.148 23.2756C157.209 23.7491 158.128 24.3314 158.904 25.0227C159.681 25.714 160.282 26.5284 160.708 27.4659C161.144 28.4034 161.366 29.4782 161.376 30.6903C161.366 32.4706 160.912 34.0142 160.012 35.321C159.122 36.6184 157.834 37.6269 156.148 38.3466C154.472 39.0568 152.451 39.4119 150.083 39.4119C147.735 39.4119 145.689 39.0521 143.947 38.3324C142.214 37.6127 140.86 36.5473 139.884 35.1364C138.918 33.7159 138.412 31.9593 138.364 29.8665H144.316C144.382 30.8419 144.662 31.6562 145.154 32.3097C145.656 32.9536 146.324 33.4413 147.157 33.7727C148 34.0947 148.951 34.2557 150.012 34.2557C151.054 34.2557 151.958 34.1042 152.725 33.8011C153.502 33.4981 154.103 33.0767 154.529 32.5369C154.955 31.9972 155.168 31.3769 155.168 30.6761C155.168 30.0227 154.974 29.4735 154.586 29.0284C154.207 28.5833 153.648 28.2045 152.91 27.892C152.181 27.5795 151.286 27.2955 150.225 27.0398L147.058 26.2443C144.605 25.6477 142.668 24.715 141.248 23.446C139.827 22.1771 139.122 20.4678 139.131 18.3182C139.122 16.5568 139.591 15.018 140.538 13.7017C141.494 12.3854 142.806 11.358 144.472 10.6193C146.139 9.88068 148.033 9.51136 150.154 9.51136C152.313 9.51136 154.198 9.88068 155.808 10.6193C157.427 11.358 158.686 12.3854 159.586 13.7017C160.486 15.018 160.95 16.5426 160.978 18.2756H155.083ZM169.703 39L163.766 17.1818H169.888L173.268 31.8409H173.467L176.99 17.1818H182.999L186.578 31.7557H186.763L190.087 17.1818H196.195L190.271 39H183.865L180.115 25.2784H179.845L176.095 39H169.703ZM199.423 39V17.1818H205.474V39H199.423ZM202.462 14.3693C201.563 14.3693 200.791 14.071 200.147 13.4744C199.513 12.8684 199.195 12.1439 199.195 11.3011C199.195 10.4678 199.513 9.75284 200.147 9.15625C200.791 8.55019 201.563 8.24716 202.462 8.24716C203.362 8.24716 204.129 8.55019 204.763 9.15625C205.407 9.75284 205.729 10.4678 205.729 11.3011C205.729 12.1439 205.407 12.8684 204.763 13.4744C204.129 14.071 203.362 14.3693 202.462 14.3693ZM210.321 47.1818V17.1818H216.287V20.8466H216.557C216.822 20.2595 217.205 19.6629 217.707 19.0568C218.219 18.4413 218.882 17.9299 219.696 17.5227C220.52 17.1061 221.543 16.8977 222.764 16.8977C224.355 16.8977 225.823 17.3144 227.168 18.1477C228.512 18.9716 229.587 20.2169 230.392 21.8835C231.197 23.5407 231.599 25.6193 231.599 28.1193C231.599 30.553 231.206 32.608 230.42 34.2841C229.644 35.9508 228.583 37.215 227.239 38.0767C225.903 38.929 224.407 39.3551 222.75 39.3551C221.576 39.3551 220.577 39.161 219.753 38.7727C218.938 38.3845 218.271 37.8968 217.75 37.3097C217.229 36.7131 216.831 36.1117 216.557 35.5057H216.372V47.1818H210.321ZM216.244 28.0909C216.244 29.3883 216.424 30.5199 216.784 31.4858C217.144 32.4517 217.665 33.2045 218.347 33.7443C219.028 34.2746 219.857 34.5398 220.832 34.5398C221.817 34.5398 222.651 34.2699 223.332 33.7301C224.014 33.1809 224.53 32.4233 224.881 31.4574C225.241 30.482 225.42 29.3598 225.42 28.0909C225.42 26.8314 225.245 25.7235 224.895 24.767C224.545 23.8106 224.028 23.0625 223.347 22.5227C222.665 21.983 221.827 21.7131 220.832 21.7131C219.848 21.7131 219.014 21.9735 218.332 22.4943C217.66 23.0152 217.144 23.7538 216.784 24.7102C216.424 25.6667 216.244 26.7936 216.244 28.0909ZM245.577 39.4261C243.332 39.4261 241.401 38.9716 239.781 38.0625C238.171 37.1439 236.931 35.8466 236.06 34.1705C235.188 32.4848 234.753 30.4915 234.753 28.1903C234.753 25.946 235.188 23.9763 236.06 22.2812C236.931 20.5862 238.157 19.2652 239.739 18.3182C241.33 17.3712 243.195 16.8977 245.335 16.8977C246.775 16.8977 248.115 17.1297 249.355 17.5938C250.605 18.0483 251.694 18.7348 252.622 19.6534C253.56 20.572 254.289 21.7273 254.81 23.1193C255.33 24.5019 255.591 26.1212 255.591 27.9773V29.6392H237.168V25.8892H249.895C249.895 25.018 249.705 24.2462 249.327 23.5739C248.948 22.9015 248.422 22.3759 247.75 21.9972C247.087 21.6089 246.315 21.4148 245.435 21.4148C244.516 21.4148 243.702 21.6278 242.991 22.054C242.291 22.4706 241.741 23.0341 241.344 23.7443C240.946 24.4451 240.742 25.2263 240.733 26.0881V29.6534C240.733 30.733 240.932 31.6657 241.33 32.4517C241.737 33.2377 242.31 33.8438 243.048 34.2699C243.787 34.696 244.663 34.9091 245.676 34.9091C246.348 34.9091 246.964 34.8144 247.523 34.625C248.081 34.4356 248.56 34.1515 248.957 33.7727C249.355 33.3939 249.658 32.9299 249.866 32.3807L255.463 32.75C255.179 34.0947 254.597 35.2689 253.716 36.2727C252.845 37.267 251.718 38.0436 250.335 38.6023C248.962 39.1515 247.376 39.4261 245.577 39.4261Z" fill="#2563EB"/>
</svg>
